<svg width="30" height="30" viewBox="0 0 30 30" fill="none" xmlns="http://www.w3.org/2000/svg">
<path d="M24.7959 25.102C24.7176 25.102 24.6392 25.0722 24.5795 25.0123L4.98763 5.4205C4.86806 5.30093 4.86806 5.10709 4.98763 4.98758C5.1072 4.86807 5.30097 4.86807 5.42055 4.98758L25.0124 24.5794C25.132 24.6989 25.132 24.8928 25.0124 25.0123C24.9526 25.0722 24.8742 25.102 24.7959 25.102Z" fill="black"/>
<path d="M5.20412 25.102C5.12575 25.102 5.04744 25.0722 4.98763 25.0123C4.86806 24.8928 4.86806 24.699 4.98763 24.5795L24.5795 4.98764C24.6989 4.86813 24.8929 4.86813 25.0123 4.98764C25.1319 5.10721 25.1319 5.30105 25.0123 5.42056L5.42048 25.0124C5.36079 25.0722 5.28248 25.102 5.20412 25.102Z" fill="black"/>
<path d="M29.6939 30H0.306122C0.137082 30 0 29.863 0 29.6939V0.306122C0 0.137082 0.137082 0 0.306122 0H29.6939C29.863 0 30 0.137082 30 0.306122V29.6939C30 29.863 29.863 30 29.6939 30ZM0.612245 29.3878H29.3878V0.612245H0.612245V29.3878Z" fill="black"/>
</svg>
