<svg width="1562" height="1401" viewBox="0 0 1562 1401" fill="none" xmlns="http://www.w3.org/2000/svg">
<path d="M511.779 4.07568C614.258 -18.8154 732.837 59.9966 765.55 109.069C782.863 135.034 772.939 166.851 804.923 179.065C839.038 199.718 887.419 182.192 909.938 214.062C926.334 234.931 908.939 252.97 905.568 279.69C927.925 286.754 959.856 320.161 966.813 340.922L962.444 367.157L984.315 389.024C1007.75 428.929 1013.2 489.379 1001.82 537.75C879.949 614.972 738.636 717.566 853.062 887.701C872.047 883.683 895.348 883.764 914.307 887.701C922.586 900.643 937.068 909.999 944.942 922.699C949.311 935.829 953.679 948.933 958.075 962.064H962.444C968.728 968.535 1059.96 1039.99 1063.09 1040.8C1076.76 997.925 1132.4 968.643 1137.47 931.435C1119.86 906.98 1120.99 866.778 1106.83 839.573C1087.31 802.068 1057.08 757.444 1041.19 717.081C1028.11 683.809 1023.72 656.792 993.054 642.717C993.054 642.717 993 642.5 991 641L986.5 637.5C957.347 604.633 1006.81 565.065 1045.56 594.616C1067 610.955 1041.89 641.747 1049.93 668.979C1062.63 711.931 1094.26 768.121 1141.81 778.34C1147.36 766.342 1155.73 744.636 1168.08 738.947C1179.19 732.934 1185.58 728.35 1203.08 730.211C1220.59 732.076 1294.07 907.357 1347.47 992.694C1363.57 1018.42 1398.57 1036.97 1413.11 1062.69C1423.44 1080.97 1421.71 1111.41 1430.61 1128.32C1455.99 1123.52 1475.43 1131.18 1500.62 1137.05C1504.15 1149.75 1503.59 1177.61 1509.36 1193.92C1512.73 1203.38 1527.94 1210.66 1531.23 1220.15C1534.9 1230.75 1527.27 1247.22 1526.86 1250.78C1526.87 1250.88 1533.6 1316.24 1535.45 1324.55C1536.52 1324.62 1537.59 1324.69 1538.67 1324.76C1552.44 1325.68 1562.87 1337.6 1561.94 1351.37C1561.76 1354.06 1561.16 1356.63 1560.21 1359C1560.52 1359.34 1560.83 1359.67 1561.14 1360H1559.79C1555.61 1369.23 1546.04 1375.37 1535.33 1374.65C1490.68 1371.66 1452.29 1371.47 1423.41 1370.59L1422.96 1370.57L1422.52 1370.54C1389.27 1368.34 1360.53 1365.78 1336.1 1363.61C1319.69 1362.15 1305.45 1360.89 1293.03 1360H1287.35C1285.6 1362.02 1283.43 1364.13 1280.78 1366.01C1269.23 1374.19 1250.88 1378.86 1207.74 1379.69C1172.72 1380.37 1111.87 1379.87 1059.34 1380.2C1006.32 1380.52 961.394 1381.64 931.457 1382.84C902.598 1384 885.896 1385.79 853.688 1385.65C775.494 1385.32 707.986 1383 676.598 1379.31C663.656 1377.79 624.311 1375.36 558.64 1378C503.369 1380.22 472.751 1381.83 459.786 1382.98C457.99 1383.14 454.085 1383.9 445.748 1385.71C438.178 1387.34 428.278 1389.52 416.553 1391.68C393.004 1396.01 361.957 1400.34 324.577 1400.88C245.968 1402.02 208.87 1394.48 186.073 1392.5C148.063 1389.2 99.8795 1388.75 78.8164 1391.58C55.0167 1394.78 31.4311 1395.74 25 1395.74C11.1931 1395.74 0.000303069 1384.55 0 1370.74C0 1365.66 1.51783 1360.93 4.12402 1356.98C4.7502 1326.46 7.76688 1296.83 13.002 1272.68L10.8174 1207.06C10.0892 1185.19 9.36193 1163.31 8.63379 1141.45C17.8839 1104.51 37.5702 1062.69 56.7715 1032.09C81.8789 992.047 137.056 923.885 174.919 896.491C240.074 849.306 322.786 810.102 367.445 743.396C376.183 715.705 384.948 687.988 393.686 660.27L384.947 655.902C374.942 649.728 351.588 653.663 341.205 647.166C317.986 632.579 328.179 612.276 314.965 585.933C309.005 574.043 289.183 573.045 279.96 564.067C265.262 549.777 246.789 524.323 236.218 507.202C185.221 424.642 180.717 236.226 236.218 152.857C291.233 70.0811 398.81 29.3129 511.779 4.07568Z" fill="black"/>
</svg>
