<svg width="88" height="95" viewBox="0 0 88 95" fill="none" xmlns="http://www.w3.org/2000/svg">
<path d="M59.2347 3.94508V90.8211C59.1973 92.3727 58.2737 93.7654 56.859 94.4035C56.3072 94.6457 55.7111 94.7705 55.1084 94.77C54.1733 94.7698 53.2687 94.4377 52.5555 93.8329L25.6784 71.0765H9.69599C4.32071 71.0562 -0.0202931 66.6821 9.16996e-05 61.3068C0.00022 61.2726 0.000530402 61.2384 0.0010201 61.2043V33.5619C-0.0760053 28.1871 4.21866 23.7676 9.59343 23.6906C9.62761 23.6901 9.6618 23.6898 9.69599 23.6896H25.6784L52.6005 0.933246C54.3217 -0.494914 56.8747 -0.257378 58.3029 1.4638C58.883 2.16296 59.2112 3.03688 59.2347 3.94508ZM65.6824 33.9785C63.7316 34.9536 62.9406 37.3254 63.9156 39.2763C63.9155 39.276 63.9158 39.2766 63.9156 39.2763C66.1871 44.4415 66.1875 50.3237 63.9161 55.489C62.9406 57.44 63.7313 59.8123 65.6822 60.7879C67.6332 61.7634 70.0056 60.9727 70.9811 59.0217C74.3515 51.6286 74.3515 43.1375 70.9811 35.7445C70.0036 33.7959 67.6335 33.006 65.6824 33.9785ZM81.9831 23.8977C81.0076 21.9469 78.6353 21.1563 76.6845 22.1318C74.7337 23.1073 73.943 25.4796 74.9185 27.4304C80.6066 40.1241 80.6066 54.642 74.9185 67.3357C73.943 69.2866 74.7337 71.6589 76.6845 72.6344C78.6353 73.6099 81.0076 72.8193 81.9831 70.8684C88.7859 55.9505 88.7859 38.8157 81.9831 23.8977Z" fill="black"/>
</svg>
