<svg width="60" height="82" viewBox="0 0 60 82" fill="none" xmlns="http://www.w3.org/2000/svg">
<path d="M29.6641 81.0617C29.5391 81.0617 29.3828 81.0617 29.2578 81.0304C28.6641 80.9679 28.0703 80.7179 27.6016 80.2804C27.5391 80.2179 27.4766 80.1867 27.4141 80.1242L0.9141 53.6242C-0.3047 52.4054 -0.3047 50.4367 0.9141 49.218C2.1329 47.9993 4.1016 47.9992 5.3203 49.218L26.5393 70.406V3.125C26.5393 1.4062 27.9455 0 29.6643 0C31.3831 0 32.7893 1.4062 32.7893 3.125V70.406L53.9773 49.218C55.1961 47.9992 57.1648 47.9992 58.3835 49.218C59.0085 49.843 59.2898 50.6242 59.2898 51.4368C59.2898 52.2494 58.9773 53.0306 58.3835 53.6556L31.8525 80.1866C31.29 80.7491 30.6025 81.0303 29.8837 81.0928C29.8212 81.0616 29.7266 81.0617 29.6641 81.0617Z" fill="#CF6B4C"/>
</svg>
