<?xml version="1.0" encoding="UTF-8"?>
<svg id="Layer_1" data-name="Layer 1" xmlns="http://www.w3.org/2000/svg" viewBox="0 0 1030.99 924.55">
  <defs>
    <style>
      .cls-1 {
        fill-rule: evenodd;
      }
    </style>
  </defs>
  <path class="cls-1" d="M484.16,924.55H0c1.88-9.77,14.86-13.08,23.92-16.57,22.14-8.54,51.81-14.63,70.46-26.63,3.61-2.32,6.71-5.95,10.34-8.29,4.69-3,9.52-4.76,14.22-7.69,8.06-5.03,14.79-11.92,21.98-17.76,6.69-5.43,13.98-10,20.04-15.98,1.3-1.29,1.47-3.28,2.59-4.74,3.93-5.13,8.99-10.24,12.93-15.39,3.44-4.5,5.21-9.52,9.05-13.61,3.03-3.23,8.24-8.58,12.28-10.65,5.68-2.92,12.76-2.8,16.8-7.1,10.36-11.02,15.03-25.38,21.98-39.65,2.76-5.68,7.18-11.98,9.7-17.76.88-2.03,4.12-21.78,3.23-24.27-.73-2.05-3.5-4.1-4.53-5.92-3.59-6.36-4.61-14.91-6.47-22.49v-8.88c0-15.67,4.62-25.68,7.76-37.88,3.1-12.05-5.55-22.03-8.41-29.6-1.91-5.07-1.61-9.14-4.53-13.02-3.7-4.93-13.99-5.94-18.74-10.06-4.36-3.78-6.74-11.13-11.63-14.21-4.21-2.65-8.95-3.8-12.93-6.51-10.84-7.38-18.36-20.27-26.5-30.18-5.21-6.34-14.89-9.47-18.74-17.16-5.54-11.06-7.25-24.35-9.05-37.29.43-8.88.86-17.76,1.29-26.63-1.32-5.68-2.26-28.77-.65-33.74,2.3-7.09,8.41-13.89,12.93-19.53,3.83-4.77,8.32-2.78,8.41-11.84,7.9-9.6,6.59-30.63,3.23-44.39-3.44-14.09-1.45-46.15,1.29-56.23.43-5.92.86-11.84,1.29-17.76,3.37-13.11,6.75-27.76,10.99-39.65.65-3.95,1.29-7.89,1.94-11.84.89-2.38,3.68-4.99,4.53-7.1v-3.55c.94-2.45,3.41-6.46,5.17-8.88l3.88-3.55c1.92-3.74,1.25-7.24,3.23-10.65,2-3.44,6.79-5.59,9.05-8.88,2.26-3.28,2.1-7.6,4.53-10.65,3.43-4.32,9.71-7.49,12.93-11.84,4.84-6.53,7.25-14.46,12.28-20.71,2.41-3,6.91-3.77,10.34-5.92,2.37-2.37,4.74-4.74,7.11-7.1,2.36-1.6,5.26-1.93,7.76-3.55,1.67-1.08,2.01-3.16,3.23-4.74,4.14-5.33,12.74-11.4,18.1-15.98,1.5-1.28,2.16-3.66,3.88-4.74,4.72-2.95,10.08-3.83,14.22-7.1,2.34-1.85,3.09-5.57,5.82-7.1,4.51-2.53,9.78-2.37,14.86-4.74,2.26-1.05,4.36-3.53,6.47-4.74,3.74-2.14,7.67-2.84,11.63-4.74,5.76-2.75,11.88-6.2,18.1-8.88,6.35-2.73,13.98-2.14,20.68-4.74,3.53-1.37,6.7-4.51,10.34-5.92,5.69-2.2,12.47-2.02,18.1-4.14,11.36-4.3,24.16-10.92,36.2-14.21,4.53-.4,9.05-.79,13.57-1.18,9.02-2.3,20.78-5.77,29.74-8.3h69.17c4.12,1.15,5.65,5.85,9.7,7.1,5.84,1.8,12.26-.18,17.45,1.78,4.85,1.83,8.99,5.83,13.57,7.69,2.43.99,4.39.23,7.11,1.18,2.06.72,3.99,3.13,5.82,4.14,5.55,3.06,11.87,4.1,17.45,7.1,6.44,3.46,12.31,9.37,18.74,13.02,11.59,6.58,29.97,7.02,41.37,13.61,11.78,6.81,17.71,20.47,23.92,32.55,4.38,8.52,11.65,16.04,16.8,23.68.65,1.78,1.29,3.55,1.94,5.33,2.96,5.04,10.01,7.36,13.57,11.84,8.1,10.18,9.74,25.37,18.74,34.92,3.65,3.87,9.63,5.85,13.57,9.47,7.35,6.75,9.7,16.56,15.51,24.86,6.81,9.72,13.85,19.07,20.68,29,3.49,5.07,8.57,9.96,10.99,15.98,7.44,18.51-1.15,47.65-9.7,59.19-2.34,3.17-6.77,5.54-9.05,8.88-3.48,5.11-2.81,10.52-5.17,17.16-1.25,3.53-3.46,7.72-4.53,11.84-2.71,10.53,1.3,23.18,3.23,30.18,1.84,6.66.46,11.87,3.88,16.57,3.95,5.44,12.39,10.63,9.7,21.9-1.45,6.05-2.97,13.01-4.53,18.35-1.89,6.45.69,16.06,1.94,20.71,1.95,7.23.27,15.53,1.94,22.49-.65,13.22-1.29,26.44-1.94,39.65-.48,35.26,1.16,70.35-6.47,99.44-1.74,6.65-.65,12.53-2.59,18.94-2.49,8.24-4.33,17.65-7.11,26.04-1.1,3.32-4.09,8.48-2.59,13.61.9,3.06,3.1,6.24,4.53,8.88,5.56.3,22.72-.83,27.8.59,19.27,5.41,37.89,11.5,50.42,23.08,3.87,3.58,6.69,8.06,10.34,11.84,2.78,2.87,7.35,5.13,9.7,8.29.65,1.58,1.29,3.15,1.94,4.74,1.86,1.78,4.78,1.5,7.11,2.96,6.43,4.02,14.33,8.34,18.74,14.21,1.66,2.2,1.69,5.92,3.23,8.29,1.15,1.77,3.61,3.82,4.53,5.92.93,2.12.17,3.31,1.29,5.33,2.75,4.92,6.94,11.54,9.7,16.57.65,2.17,1.29,4.34,1.94,6.51,1.08,1.65,3.76,3.37,4.53,5.33.43,2.77.86,5.52,1.29,8.29,1.43,2.57,3.51,6.96,4.53,10.06,1.22,3.72-.23,6.45,1.29,9.47,1.33,2.64,5.42,4.05,7.76,5.92,4.78,3.83,10.23,10.47,12.93,15.98,5.02,10.26,4.14,23.94,10.34,33.15,3.32,4.93,10,8.79,14.86,12.43,1.25.93,1.49,2.46,2.59,3.55,6.49,6.47,12.93,12.95,19.39,19.53,4.42,4.49,9.31,15.39,14.86,15.39M665.4,924.55h-65.09"/>
</svg>